<svg width="12" height="16" viewBox="0 0 12 16" fill="none" xmlns="http://www.w3.org/2000/svg">
<path d="M4.66666 6.66667C4.13623 6.66667 3.62752 6.87739 3.25245 7.25246C2.87738 7.62753 2.66666 8.13624 2.66666 8.66667C2.66666 9.1971 2.87738 9.70581 3.25245 10.0809C3.62752 10.456 4.13623 10.6667 4.66666 10.6667H7.33333C7.86376 10.6667 8.37247 10.456 8.74754 10.0809C9.12261 9.70581 9.33333 9.1971 9.33333 8.66667C9.33333 8.13624 9.12261 7.62753 8.74754 7.25246C8.37247 6.87739 7.86376 6.66667 7.33333 6.66667H4.66666ZM7.99999 8.66667C7.99999 8.84348 7.92976 9.01305 7.80473 9.13808C7.67971 9.2631 7.51014 9.33334 7.33333 9.33334H4.66666C4.48985 9.33334 4.32028 9.2631 4.19526 9.13808C4.07023 9.01305 4 8.84348 4 8.66667C4 8.48986 4.07023 8.32029 4.19526 8.19527C4.32028 8.07024 4.48985 8.00001 4.66666 8.00001H7.33333C7.51014 8.00001 7.67971 8.07024 7.80473 8.19527C7.92976 8.32029 7.99999 8.48986 7.99999 8.66667ZM9.33333 12.6667C9.33333 12.8435 9.26309 13.013 9.13806 13.1381C9.01304 13.2631 8.84347 13.3333 8.66666 13.3333H3.33333C3.15652 13.3333 2.98695 13.2631 2.86193 13.1381C2.7369 13.013 2.66666 12.8435 2.66666 12.6667C2.66666 12.4899 2.7369 12.3203 2.86193 12.1953C2.98695 12.0702 3.15652 12 3.33333 12H8.66666C8.84347 12 9.01304 12.0702 9.13806 12.1953C9.26309 12.3203 9.33333 12.4899 9.33333 12.6667ZM11.024 2.08068L9.91866 0.976676C9.60991 0.666177 9.24265 0.419985 8.83813 0.252342C8.43362 0.0846993 7.99987 -0.00106532 7.56199 9.98748e-06H3.33333C2.4496 0.00106856 1.60237 0.352598 0.977479 0.977489C0.352588 1.60238 0.00105857 2.44961 0 3.33334V12.6667C0.00105857 13.5504 0.352588 14.3976 0.977479 15.0225C1.60237 15.6474 2.4496 15.9989 3.33333 16H8.66666C9.55039 15.9989 10.3976 15.6474 11.0225 15.0225C11.6474 14.3976 11.9989 13.5504 12 12.6667V4.43801C12.0012 4.00006 11.9156 3.56622 11.7481 3.16159C11.5806 2.75695 11.3344 2.38956 11.024 2.08068ZM10.0813 3.02334C10.1751 3.11829 10.2595 3.22211 10.3333 3.33334H8.66666V1.66668C8.77807 1.73969 8.88172 1.82391 8.97599 1.91801L10.0813 3.02334ZM10.6667 12.6667C10.6667 13.1971 10.4559 13.7058 10.0809 14.0809C9.7058 14.456 9.19709 14.6667 8.66666 14.6667H3.33333C2.8029 14.6667 2.29419 14.456 1.91912 14.0809C1.54405 13.7058 1.33333 13.1971 1.33333 12.6667V3.33334C1.33333 2.80291 1.54405 2.2942 1.91912 1.91913C2.29419 1.54406 2.8029 1.33334 3.33333 1.33334H7.33333V3.33334C7.33333 3.68696 7.4738 4.0261 7.72385 4.27615C7.9739 4.5262 8.31304 4.66667 8.66666 4.66667H10.6667V12.6667Z" fill="#F77F00"/>
</svg>
