<svg width="16" height="16" viewBox="0 0 16 16" fill="none" xmlns="http://www.w3.org/2000/svg">
<path d="M12.6667 0H3.33333C2.4496 0.00115481 1.60237 0.384641 0.97748 1.06634C0.352588 1.74804 0.00105857 2.67229 0 3.63636L0 12.3636C0.00105857 13.3277 0.352588 14.252 0.97748 14.9337C1.60237 15.6154 2.4496 15.9988 3.33333 16H12.6667C13.5504 15.9988 14.3976 15.6154 15.0225 14.9337C15.6474 14.252 15.9989 13.3277 16 12.3636V3.63636C15.9989 2.67229 15.6474 1.74804 15.0225 1.06634C14.3976 0.384641 13.5504 0.00115481 12.6667 0V0ZM3.33333 1.45455H12.6667C13.1971 1.45455 13.7058 1.68442 14.0809 2.09359C14.456 2.50276 14.6667 3.05771 14.6667 3.63636V4.36364H1.33333V3.63636C1.33333 3.05771 1.54405 2.50276 1.91912 2.09359C2.29419 1.68442 2.8029 1.45455 3.33333 1.45455V1.45455ZM12.6667 14.5455H3.33333C2.8029 14.5455 2.29419 14.3156 1.91912 13.9064C1.54405 13.4972 1.33333 12.9423 1.33333 12.3636V5.81818H14.6667V12.3636C14.6667 12.9423 14.456 13.4972 14.0809 13.9064C13.7058 14.3156 13.1971 14.5455 12.6667 14.5455ZM12.6667 8.72727C12.6667 8.92016 12.5964 9.10514 12.4714 9.24153C12.3464 9.37792 12.1768 9.45455 12 9.45455H4C3.82319 9.45455 3.65362 9.37792 3.5286 9.24153C3.40357 9.10514 3.33333 8.92016 3.33333 8.72727C3.33333 8.53439 3.40357 8.3494 3.5286 8.21301C3.65362 8.07662 3.82319 8 4 8H12C12.1768 8 12.3464 8.07662 12.4714 8.21301C12.5964 8.3494 12.6667 8.53439 12.6667 8.72727ZM10 11.6364C10 11.8292 9.92976 12.0142 9.80474 12.1506C9.67971 12.287 9.51014 12.3636 9.33333 12.3636H4C3.82319 12.3636 3.65362 12.287 3.5286 12.1506C3.40357 12.0142 3.33333 11.8292 3.33333 11.6364C3.33333 11.4435 3.40357 11.2585 3.5286 11.1221C3.65362 10.9857 3.82319 10.9091 4 10.9091H9.33333C9.51014 10.9091 9.67971 10.9857 9.80474 11.1221C9.92976 11.2585 10 11.4435 10 11.6364ZM2 2.90909C2 2.76525 2.0391 2.62464 2.11235 2.50504C2.18561 2.38544 2.28973 2.29222 2.41154 2.23718C2.53336 2.18213 2.66741 2.16773 2.79673 2.19579C2.92605 2.22385 3.04484 2.29312 3.13807 2.39483C3.23131 2.49654 3.2948 2.62613 3.32052 2.76721C3.34625 2.90828 3.33304 3.05451 3.28259 3.18741C3.23213 3.3203 3.14668 3.43388 3.03705 3.5138C2.92741 3.59371 2.79852 3.63636 2.66667 3.63636C2.48986 3.63636 2.32029 3.55974 2.19526 3.42335C2.07024 3.28696 2 3.10198 2 2.90909ZM4 2.90909C4 2.76525 4.0391 2.62464 4.11235 2.50504C4.18561 2.38544 4.28973 2.29222 4.41154 2.23718C4.53336 2.18213 4.66741 2.16773 4.79673 2.19579C4.92605 2.22385 5.04484 2.29312 5.13807 2.39483C5.23131 2.49654 5.2948 2.62613 5.32052 2.76721C5.34625 2.90828 5.33304 3.05451 5.28259 3.18741C5.23213 3.3203 5.14668 3.43388 5.03705 3.5138C4.92741 3.59371 4.79852 3.63636 4.66667 3.63636C4.48986 3.63636 4.32029 3.55974 4.19526 3.42335C4.07024 3.28696 4 3.10198 4 2.90909ZM6 2.90909C6 2.76525 6.0391 2.62464 6.11235 2.50504C6.18561 2.38544 6.28973 2.29222 6.41154 2.23718C6.53336 2.18213 6.66741 2.16773 6.79673 2.19579C6.92605 2.22385 7.04484 2.29312 7.13807 2.39483C7.23131 2.49654 7.2948 2.62613 7.32052 2.76721C7.34625 2.90828 7.33305 3.05451 7.28259 3.18741C7.23213 3.3203 7.14668 3.43388 7.03705 3.5138C6.92741 3.59371 6.79852 3.63636 6.66667 3.63636C6.48986 3.63636 6.32029 3.55974 6.19526 3.42335C6.07024 3.28696 6 3.10198 6 2.90909Z" fill="#335C76"/>
</svg>
