<svg width="16" height="16" viewBox="0 0 16 16" fill="none" xmlns="http://www.w3.org/2000/svg">
<path d="M12.6667 0H3.33333C2.4496 0.00115481 1.60237 0.384641 0.97748 1.06634C0.352588 1.74804 0.00105857 2.67229 0 3.63636L0 9.45455C0.00105857 10.4186 0.352588 11.3429 0.97748 12.0246C1.60237 12.7063 2.4496 13.0898 3.33333 13.0909H7.33333V14.5455H4.66667C4.48986 14.5455 4.32029 14.6221 4.19526 14.7585C4.07024 14.8949 4 15.0798 4 15.2727C4 15.4656 4.07024 15.6506 4.19526 15.787C4.32029 15.9234 4.48986 16 4.66667 16H11.3333C11.5101 16 11.6797 15.9234 11.8047 15.787C11.9298 15.6506 12 15.4656 12 15.2727C12 15.0798 11.9298 14.8949 11.8047 14.7585C11.6797 14.6221 11.5101 14.5455 11.3333 14.5455H8.66667V13.0909H12.6667C13.5504 13.0898 14.3976 12.7063 15.0225 12.0246C15.6474 11.3429 15.9989 10.4186 16 9.45455V3.63636C15.9989 2.67229 15.6474 1.74804 15.0225 1.06634C14.3976 0.384641 13.5504 0.00115481 12.6667 0ZM3.33333 1.45455H12.6667C13.1971 1.45455 13.7058 1.68441 14.0809 2.09359C14.456 2.50276 14.6667 3.05771 14.6667 3.63636V8.72727H1.33333V3.63636C1.33333 3.05771 1.54405 2.50276 1.91912 2.09359C2.29419 1.68441 2.8029 1.45455 3.33333 1.45455ZM12.6667 11.6364H3.33333C2.92116 11.6345 2.51958 11.4938 2.18353 11.2334C1.84749 10.973 1.59339 10.6058 1.456 10.1818H14.544C14.4066 10.6058 14.1525 10.973 13.8165 11.2334C13.4804 11.4938 13.0788 11.6345 12.6667 11.6364Z" fill="#335C76"/>
</svg>
