<svg width="16" height="16" viewBox="0 0 16 16" fill="none" xmlns="http://www.w3.org/2000/svg">
<path d="M16 10.6671V14.0004C16 14.5308 15.7893 15.0396 15.4142 15.4146C15.0391 15.7897 14.5304 16.0004 14 16.0004H10.6667C9.7314 15.9995 8.81283 15.7526 8.0031 15.2845C7.19337 14.8165 6.52097 14.1437 6.05333 13.3337C6.55591 13.3302 7.05678 13.2747 7.548 13.1684C7.9221 13.6362 8.39666 14.0138 8.93653 14.2732C9.47639 14.5326 10.0677 14.6672 10.6667 14.6671H14C14.1768 14.6671 14.3464 14.5968 14.4714 14.4718C14.5964 14.3468 14.6667 14.1772 14.6667 14.0004V10.6671C14.6665 10.0679 14.5315 9.47645 14.2716 8.93657C14.0117 8.3967 13.6336 7.92225 13.1653 7.54841C13.2726 7.05729 13.3289 6.55642 13.3333 6.05375C14.1433 6.52138 14.8161 7.19379 15.2841 8.00352C15.7522 8.81324 15.999 9.73181 16 10.6671ZM11.9847 6.43442C12.047 5.57551 11.9237 4.71324 11.6232 3.90621C11.3227 3.09918 10.852 2.3663 10.2431 1.75736C9.63412 1.14842 8.90123 0.677703 8.0942 0.377186C7.28717 0.0766686 6.42491 -0.0466029 5.566 0.0157476C4.04394 0.189569 2.63795 0.913865 1.61278 2.05224C0.587618 3.19062 0.0140181 4.66453 0 6.19641L0 9.55642C0 11.2444 1.00467 12.0004 2 12.0004H5.8C7.33254 11.9872 8.80734 11.414 9.94652 10.3888C11.0857 9.36355 11.8106 7.95709 11.9847 6.43442ZM9.3 2.70108C9.77329 3.17542 10.1392 3.74588 10.3729 4.37387C10.6066 5.00187 10.7027 5.67273 10.6547 6.34108C10.5124 7.5302 9.94033 8.62629 9.04622 9.42304C8.1521 10.2198 6.99759 10.6622 5.8 10.6671H2C1.38133 10.6671 1.33333 9.81708 1.33333 9.55642V6.19641C1.33889 4.99933 1.78177 3.84555 2.57861 2.9522C3.37546 2.05885 4.47133 1.48753 5.66 1.34575C5.77067 1.33775 5.88133 1.33375 5.992 1.33375C6.60618 1.33318 7.21445 1.45364 7.78206 1.68825C8.34966 1.92287 8.86547 2.26703 9.3 2.70108Z" fill="#335C76"/>
</svg>
