<svg width="16" height="17" viewBox="0 0 16 17" fill="none" xmlns="http://www.w3.org/2000/svg">
<rect width="16" height="17" fill="#CCD6DD"/>
<g id="Desktop - 1195" clip-path="url(#clip0_0_1)">
<rect width="1440" height="892" transform="translate(-1320 -47)" fill="white"/>
<g id="Group 631753">
<g id="Group 631748">
<g id="Group 4973">
<circle id="Ellipse 23" cx="8" cy="9" r="16" fill="white"/>
<g id="vuesax/linear/notification">
<g id="vuesax/linear/notification_2">
<g id="notification">
<path id="Vector" d="M8.0165 1.4248C5.25816 1.4248 3.0165 3.66647 3.0165 6.4248V8.83314C3.0165 9.34147 2.79983 10.1165 2.5415 10.5498L1.58316 12.1415C0.991496 13.1248 1.39983 14.2165 2.48316 14.5831C6.07483 15.7831 9.94983 15.7831 13.5415 14.5831C14.5498 14.2498 14.9915 13.0581 14.4415 12.1415L13.4832 10.5498C13.2332 10.1165 13.0165 9.34147 13.0165 8.83314V6.4248C13.0165 3.6748 10.7665 1.4248 8.0165 1.4248Z" stroke="#292D32" stroke-width="1.5" stroke-miterlimit="10" stroke-linecap="round"/>
<path id="Vector_2" d="M9.55843 1.6667C9.3001 1.5917 9.03343 1.53337 8.75843 1.50003C7.95843 1.40003 7.19176 1.45837 6.4751 1.6667C6.71676 1.05003 7.31676 0.616699 8.01676 0.616699C8.71676 0.616699 9.31676 1.05003 9.55843 1.6667Z" stroke="#292D32" stroke-width="1.5" stroke-miterlimit="10" stroke-linecap="round" stroke-linejoin="round"/>
<path id="Vector_3" d="M10.5166 14.8833C10.5166 16.2583 9.3916 17.3833 8.0166 17.3833C7.33327 17.3833 6.69993 17.1 6.24993 16.65C5.79993 16.2 5.5166 15.5666 5.5166 14.8833" stroke="#292D32" stroke-width="1.5" stroke-miterlimit="10"/>
</g>
</g>
</g>
</g>
</g>
</g>
</g>
<defs>
<clipPath id="clip0_0_1">
<rect width="1440" height="892" fill="white" transform="translate(-1320 -47)"/>
</clipPath>
</defs>
</svg>
