<svg width="16" height="16" viewBox="0 0 16 16" fill="none" xmlns="http://www.w3.org/2000/svg">
<path d="M15.3333 9.33333H14.6667V3.33333C14.6656 2.4496 14.3141 1.60237 13.6892 0.97748C13.0643 0.352588 12.2171 0.00105857 11.3333 0L4.66667 0C3.78294 0.00105857 2.93571 0.352588 2.31081 0.97748C1.68592 1.60237 1.33439 2.4496 1.33333 3.33333V9.33333H0.666667C0.489856 9.33333 0.320286 9.40357 0.195262 9.5286C0.0702379 9.65362 0 9.82319 0 10C0 10.1768 0.0702379 10.3464 0.195262 10.4714C0.320286 10.5964 0.489856 10.6667 0.666667 10.6667H7.33333V13.3333H6C5.46957 13.3333 4.96086 13.544 4.58579 13.9191C4.21071 14.2942 4 14.8029 4 15.3333C4 15.5101 4.07024 15.6797 4.19526 15.8047C4.32029 15.9298 4.48986 16 4.66667 16C4.84348 16 5.01305 15.9298 5.13807 15.8047C5.2631 15.6797 5.33333 15.5101 5.33333 15.3333C5.33333 15.1565 5.40357 14.987 5.5286 14.8619C5.65362 14.7369 5.82319 14.6667 6 14.6667H10C10.1768 14.6667 10.3464 14.7369 10.4714 14.8619C10.5964 14.987 10.6667 15.1565 10.6667 15.3333C10.6667 15.5101 10.7369 15.6797 10.8619 15.8047C10.987 15.9298 11.1565 16 11.3333 16C11.5101 16 11.6797 15.9298 11.8047 15.8047C11.9298 15.6797 12 15.5101 12 15.3333C12 14.8029 11.7893 14.2942 11.4142 13.9191C11.0391 13.544 10.5304 13.3333 10 13.3333H8.66667V10.6667H15.3333C15.5101 10.6667 15.6797 10.5964 15.8047 10.4714C15.9298 10.3464 16 10.1768 16 10C16 9.82319 15.9298 9.65362 15.8047 9.5286C15.6797 9.40357 15.5101 9.33333 15.3333 9.33333ZM2.66667 3.33333C2.66667 2.8029 2.87738 2.29419 3.25245 1.91912C3.62753 1.54405 4.13623 1.33333 4.66667 1.33333H11.3333C11.8638 1.33333 12.3725 1.54405 12.7475 1.91912C13.1226 2.29419 13.3333 2.8029 13.3333 3.33333V9.33333H2.66667V3.33333Z" fill="#335C76"/>
</svg>
